<?xml version="1.0" standalone="no"?><!DOCTYPE svg PUBLIC "-//W3C//DTD SVG 1.1//EN" "http://www.w3.org/Graphics/SVG/1.1/DTD/svg11.dtd"><svg t="1594520760367" class="icon" viewBox="0 0 1024 1024" version="1.1" xmlns="http://www.w3.org/2000/svg" p-id="3121" xmlns:xlink="http://www.w3.org/1999/xlink" width="48" height="48"><defs><style type="text/css"></style></defs><path d="M267.3 834.6h-96.5c-27.4 0-49.7-22.3-49.7-49.7V115.2c0-27.4 22.3-49.7 49.7-49.7H727c27.4 0 49.7 22.3 49.7 49.7v96.5h-42.6v-96.5c0-3.9-3.2-7.1-7.1-7.1H170.8c-3.9 0-7.1 3.2-7.1 7.1v669.7c0 3.9 3.2 7.1 7.1 7.1h96.5v42.6z" fill="#ffffff" p-id="3122"></path><path d="M851.9 959.5H295.7c-27.4 0-49.7-22.3-49.7-49.7V240.1c0-27.4 22.3-49.7 49.7-49.7h556.2c27.4 0 49.7 22.3 49.7 49.7v669.7c-0.1 27.4-22.3 49.7-49.7 49.7zM295.7 233c-3.9 0-7.1 3.2-7.1 7.1v669.7c0 3.9 3.2 7.1 7.1 7.1h556.2c3.9 0 7.1-3.2 7.1-7.1V240.1c0-3.9-3.2-7.1-7.1-7.1H295.7z" fill="#ffffff" p-id="3123"></path></svg>