<?xml version="1.0" standalone="no"?><!DOCTYPE svg PUBLIC "-//W3C//DTD SVG 1.1//EN" "http://www.w3.org/Graphics/SVG/1.1/DTD/svg11.dtd"><svg t="1594196919223" class="icon" viewBox="0 0 1024 1024" version="1.1" xmlns="http://www.w3.org/2000/svg" p-id="1021" xmlns:xlink="http://www.w3.org/1999/xlink" width="48" height="48"><defs><style type="text/css"></style></defs><path d="M357.888 861.355c-21.504 0-23.552-17.408-23.552-38.912s2.048-38.912 23.552-38.912H583.68c166.4 0 210.432-136.704 210.432-209.408 0-95.744-36.352-209.92-209.92-209.92H284.16L386.048 466.09c7.168 7.168 11.264 17.408 11.264 27.648 0 10.24-4.096 20.48-11.264 27.648-7.168 7.168-17.408 11.264-27.648 11.264-10.752 0-20.48-4.096-27.648-11.264L162.816 352.939c-15.36-15.36-15.36-39.936 0-55.296l156.16-156.16c7.168-7.168 17.408-11.264 27.648-11.264 10.752 0 20.48 4.096 27.648 11.264 15.36 15.36 15.36 39.936 0 55.296l-88.576 89.088h299.008c105.472 0 183.808 34.816 233.984 102.912 44.544 61.44 54.272 134.656 54.272 185.344 0 115.712-76.8 287.744-288.768 287.744H357.888z" fill="#8a8a8a" p-id="1022"></path></svg>