<?xml version="1.0" standalone="no"?><!DOCTYPE svg PUBLIC "-//W3C//DTD SVG 1.1//EN" "http://www.w3.org/Graphics/SVG/1.1/DTD/svg11.dtd"><svg t="1594459336514" class="icon" viewBox="0 0 1024 1024" version="1.1" xmlns="http://www.w3.org/2000/svg" p-id="4076" xmlns:xlink="http://www.w3.org/1999/xlink" width="48" height="48"><defs><style type="text/css"></style></defs><path d="M1011.463812 481.824234l-150.821231-150.842563a42.686462 42.686462 0 1 0-60.349825 60.339158L878.305944 469.334018H554.648276V145.697682l77.991856 77.991856a42.665129 42.665129 0 0 0 60.349825-60.328492L542.147393 12.507816a42.665129 42.665129 0 0 0-60.339158 0L330.965672 163.361046a42.665129 42.665129 0 1 0 60.328492 60.339158L469.318018 145.697682V469.334018H145.671016l78.002522-78.002522a42.686462 42.686462 0 0 0-60.349824-60.339159L12.491816 481.824234a42.665129 42.665129 0 0 0 0 60.339159l150.863896 150.85323a42.665129 42.665129 0 1 0 61.373788-59.272531l-1.045295-1.055962L145.671016 554.664276H469.318018v323.657668l-77.991855-78.002522a42.686462 42.686462 0 0 0-60.349825 60.349825L481.818901 1011.501144a42.686462 42.686462 0 0 0 60.339159 0l150.863896-150.85323a42.686462 42.686462 0 0 0-60.360491-60.349825L554.648276 878.321944V554.664276h323.647002l-78.002522 77.991855a42.686462 42.686462 0 0 0 60.360491 60.339159L1011.485144 542.152727a42.665129 42.665129 0 0 0-0.021332-60.328493z" p-id="4077" fill="#8a8a8a"></path></svg>