<?xml version="1.0" standalone="no"?><!DOCTYPE svg PUBLIC "-//W3C//DTD SVG 1.1//EN" "http://www.w3.org/Graphics/SVG/1.1/DTD/svg11.dtd"><svg t="1595294198584" class="icon" viewBox="0 0 1024 1024" version="1.1" xmlns="http://www.w3.org/2000/svg" p-id="7316" xmlns:xlink="http://www.w3.org/1999/xlink" width="48" height="48"><defs><style type="text/css"></style></defs><path d="M827.84 572.64L560 476a20 20 0 0 0-25.6 25.6L631 769.51c5.79 16 27.7 17.94 36.17 3.15l36.37-63.5A20 20 0 0 1 735 705l116.78 116.73a20 20 0 0 0 28.29 0 20 20 0 0 0 0-28.29L763.3 676.68a20 20 0 0 1 4.2-31.5l63.5-36.37c14.79-8.47 12.88-30.38-3.16-36.17z m38.45-508.42H158.45a60 60 0 0 0-60 60v775.85a60 60 0 0 0 60 60h396.83A14.72 14.72 0 0 0 570 945.35a17.58 17.58 0 0 0-17.57-17.58H155.74a25 25 0 0 1-25-25V121.52a25 25 0 0 1 25-25H869a25 25 0 0 1 25 25v324.33A17.15 17.15 0 0 0 911.15 463a15.14 15.14 0 0 0 15.14-15.14V124.22a60 60 0 0 0-60-60z" p-id="7317" fill="#FFC43E"></path></svg>