<?xml version="1.0" standalone="no"?><!DOCTYPE svg PUBLIC "-//W3C//DTD SVG 1.1//EN" "http://www.w3.org/Graphics/SVG/1.1/DTD/svg11.dtd"><svg t="1593414191762" class="icon" viewBox="0 0 1024 1024" version="1.1" xmlns="http://www.w3.org/2000/svg" p-id="3659" xmlns:xlink="http://www.w3.org/1999/xlink" width="48" height="48"><defs><style type="text/css"></style></defs><path d="M940.8 83.2c25.6 25.6 25.6 64 0 83.2L595.2 512l345.6 345.6c25.6 25.6 25.6 64 0 83.2-25.6 25.6-64 25.6-83.2 0L512 595.2l-345.6 345.6c-25.6 25.6-64 25.6-83.2 0-25.6-25.6-25.6-64 0-83.2L428.8 512 83.2 166.4c-25.6-25.6-25.6-64 0-83.2s64-25.6 83.2 0L512 428.8l345.6-345.6C876.8 57.6 921.6 57.6 940.8 83.2z" p-id="3660" fill="#000000"></path></svg>